<?xml version="1.0" encoding="UTF-8" standalone="no"?>
<svg
   xmlns:dc="http://purl.org/dc/elements/1.1/"
   xmlns:cc="http://creativecommons.org/ns#"
   xmlns:rdf="http://www.w3.org/1999/02/22-rdf-syntax-ns#"
   xmlns:svg="http://www.w3.org/2000/svg"
   xmlns="http://www.w3.org/2000/svg"
   xmlns:sodipodi="http://sodipodi.sourceforge.net/DTD/sodipodi-0.dtd"
   xmlns:inkscape="http://www.inkscape.org/namespaces/inkscape"
   width="172.828125"
   height="172.828125"
   id="svg2"
   version="1.1"
   inkscape:version="0.91 r13725"
   sodipodi:docname="as02.svg">
  <metadata
     id="metadata10">
    <rdf:RDF>
      <cc:Work
         rdf:about="">
        <dc:format>image/svg+xml</dc:format>
        <dc:type
           rdf:resource="http://purl.org/dc/dcmitype/StillImage" />
      </cc:Work>
    </rdf:RDF>
  </metadata>
  <defs
     id="defs8" />
  <sodipodi:namedview
     pagecolor="#ffffff"
     bordercolor="#666666"
     borderopacity="1"
     objecttolerance="10"
     gridtolerance="10"
     guidetolerance="10"
     inkscape:pageopacity="0"
     inkscape:pageshadow="2"
     inkscape:window-width="1358"
     inkscape:window-height="779"
     id="namedview6"
     showgrid="false"
     inkscape:zoom="1.3655185"
     inkscape:cx="86.414062"
     inkscape:cy="86.414062"
     inkscape:window-x="0"
     inkscape:window-y="0"
     inkscape:window-maximized="0"
     inkscape:current-layer="svg2" />
  <path
     d="m 37.279063,111.21406 0,0 -5.45,0 0,0 q -0.66,-2.21 -0.66,-5.91 l 0,0 0,0 q -4.68,6.86 -12.73,6.86 l 0,0 0,0 q -4.08,0 -7.19,-2.9 l 0,0 0,0 q -3.1100005,-2.9 -3.1100005,-7.47 l 0,0 0,0 q 0,-2.709998 1.09,-4.779998 l 0,0 0,0 q 1.0900005,-2.08 3.2000005,-3.5 l 0,0 0,0 q 2.11,-1.42 5.13,-2.25 l 0,0 0,0 q 3.02,-0.83 7.17,-1.14 l 0,0 6.15,-0.5 0,-1.75 0,0 q 0,-9.43 -8.78,-9.43 l 0,0 0,0 q -2.08,0 -5.26,0.9 l 0,0 0,0 q -3.18,0.9 -5.47,2.13 l 0,0 -1.4400005,-3.94 0,0 q 7.4900005,-3.83 13.9200005,-3.83 l 0,0 0,0 q 12.52,0 12.52,13.25 l 0,0 0,15.749998 0,0 q 0,4.78 0.91,8.51 m -6.4,-10.86 0,0 0,-6.649998 0,0 q -7.41,0.67 -10.17,1.25 l 0,0 0,0 q -2.76,0.58 -4.78,2.16 l 0,0 0,0 q -2.03,1.58 -2.03,4.289998 l 0,0 0,0 q 0,2.46 1.73,3.97 l 0,0 0,0 q 1.72,1.52 4.389999,1.52 l 0,0 0,0 q 2.92,0 5.8,-1.74 l 0,0 0,0 q 2.890001,-1.74 5.06,-4.8 z m 46.09,-25.139998 -1.23,4.61 0,0 q -4.6,-1.52 -8.680001,-1.52 l 0,0 0,0 q -4.46,0 -7.07,1.5 l 0,0 0,0 q -2.6,1.49 -2.6,3.99 l 0,0 0,0 q 0,1.58 1.2,2.76 l 0,0 0,0 q 1.19,1.18 4.78,2.2 l 0,0 5.24,1.51 0,0 q 3.62,1.02 5.9,2.44 l 0,0 0,0 q 2.290001,1.42 3.430001,3.45 l 0,0 0,0 q 1.14,2.02 1.14,4.689998 l 0,0 0,0 q 0,5.24 -4.39,8.28 l 0,0 0,0 q -4.400001,3.04 -11.18,3.04 l 0,0 0,0 q -6.75,0 -11.14,-2.04 l 0,0 1.05,-4.75 0,0 q 4.61,2.18 9.88,2.18 l 0,0 0,0 q 4.569999,0 7.43,-1.7 l 0,0 0,0 q 2.87,-1.71 2.87,-4.52 l 0,0 0,0 q 0,-1.899998 -1.42,-3.389998 l 0,0 0,0 q -1.43,-1.5 -6.7,-3.11 l 0,0 0,0 q -4.26,-1.3 -6.26,-1.95 l 0,0 0,0 q -2,-0.65 -3.73,-1.92 l 0,0 0,0 q -1.72,-1.27 -2.62,-3.02 l 0,0 0,0 q -0.89,-1.76 -0.89,-3.94 l 0,0 0,0 q 0,-4.75 4.15,-7.52 l 0,0 0,0 q 4.15,-2.78 11,-2.78 l 0,0 0,0 q 4.43,0 9.84,1.51 l 0,0 z m 31.539997,-14.55 0,0 0,0 q 7.87,0 12.11,6.76 l 0,0 0,0 q 4.24,6.77 4.24,19.01 l 0,0 0,0 q 0,11.84 -4.12,18.789998 l 0,0 0,0 q -4.11,6.94 -12.23,6.94 l 0,0 0,0 q -7.84,0 -12.089998,-6.75 l 0,0 0,0 Q 92.159063,98.664062 92.159063,86.434062 l 0,0 0,0 q 0,-11.89 4.129999,-18.83 l 0,0 0,0 q 4.129998,-6.94 12.219998,-6.94 m 0,46.439998 0,0 0,0 q 5.2,0 7.72,-4.94 l 0,0 0,0 q 2.51,-4.939998 2.51,-15.729998 l 0,0 0,0 q 0,-10.83 -2.51,-15.74 l 0,0 0,0 q -2.52,-4.9 -7.72,-4.9 l 0,0 0,0 q -5.13,0 -7.66,5.03 l 0,0 0,0 q -2.539998,5.02 -2.539998,15.61 l 0,0 0,0 q 0,10.72 2.519998,15.689998 l 0,0 0,0 q 2.51,4.98 7.68,4.98 m -0.14,-25.949998 0,0 0,0 q 2.21,0 3.74,1.53 l 0,0 0,0 q 1.53,1.53 1.53,3.75 l 0,0 0,0 q 0,2.28 -1.54,3.92 l 0,0 0,0 q -1.55,1.63 -3.73,1.63 l 0,0 0,0 q -2.15,0 -3.67,-1.63 l 0,0 0,0 q -1.53,-1.64 -1.53,-3.92 l 0,0 0,0 q 0,-2.25 1.49,-3.77 l 0,0 0,0 q 1.49,-1.51 3.71,-1.51 z m 56.32,25.029998 0,5.03 -27.28,0 0,-4.18 0,0 q 10.37,-11.569998 13.46,-15.509998 l 0,0 0,0 q 3.1,-3.93 5.03,-8.26 l 0,0 0,0 q 1.93,-4.32 1.93,-8.61 l 0,0 0,0 q 0,-4.15 -2.51,-6.54 l 0,0 0,0 q -2.51,-2.39 -7.05,-2.39 l 0,0 0,0 q -3.48,0 -9.35,2.14 l 0,0 -0.81,-4.95 0,0 q 5.31,-2.25 11.11,-2.25 l 0,0 0,0 q 6.65,0 10.71,3.74 l 0,0 0,0 q 4.06,3.74 4.06,10 l 0,0 0,0 q 0,4.47 -2.1,8.86 l 0,0 0,0 q -2.09,4.4 -5.36,8.44 l 0,0 0,0 q -3.27,4.04 -12.72,14.479998 l 0,0 20.88,0 z"
     id="path4"
     inkscape:connector-curvature="0"
     style="fill:#000000;stroke:#000000" />
</svg>
