<?xml version="1.0" encoding="UTF-8" standalone="no"?>
<svg
   xmlns:dc="http://purl.org/dc/elements/1.1/"
   xmlns:cc="http://creativecommons.org/ns#"
   xmlns:rdf="http://www.w3.org/1999/02/22-rdf-syntax-ns#"
   xmlns:svg="http://www.w3.org/2000/svg"
   xmlns="http://www.w3.org/2000/svg"
   xmlns:sodipodi="http://sodipodi.sourceforge.net/DTD/sodipodi-0.dtd"
   xmlns:inkscape="http://www.inkscape.org/namespaces/inkscape"
   width="172.828125"
   height="172.828125"
   id="svg2"
   version="1.1"
   inkscape:version="0.91 r13725"
   sodipodi:docname="as03.svg">
  <metadata
     id="metadata10">
    <rdf:RDF>
      <cc:Work
         rdf:about="">
        <dc:format>image/svg+xml</dc:format>
        <dc:type
           rdf:resource="http://purl.org/dc/dcmitype/StillImage" />
      </cc:Work>
    </rdf:RDF>
  </metadata>
  <defs
     id="defs8" />
  <sodipodi:namedview
     pagecolor="#ffffff"
     bordercolor="#666666"
     borderopacity="1"
     objecttolerance="10"
     gridtolerance="10"
     guidetolerance="10"
     inkscape:pageopacity="0"
     inkscape:pageshadow="2"
     inkscape:window-width="1225"
     inkscape:window-height="734"
     id="namedview6"
     showgrid="false"
     inkscape:zoom="1.3655185"
     inkscape:cx="86.414062"
     inkscape:cy="86.414062"
     inkscape:window-x="0"
     inkscape:window-y="0"
     inkscape:window-maximized="0"
     inkscape:current-layer="svg2" />
  <path
     d="m 37.174063,111.21406 0,0 -5.45,0 0,0 q -0.66,-2.21 -0.66,-5.91 l 0,0 0,0 q -4.68,6.86 -12.73,6.86 l 0,0 0,0 q -4.08,0 -7.19,-2.9 l 0,0 0,0 q -3.1100005,-2.9 -3.1100005,-7.47 l 0,0 0,0 q 0,-2.709998 1.09,-4.779998 l 0,0 0,0 q 1.0900005,-2.08 3.2000005,-3.5 l 0,0 0,0 q 2.11,-1.42 5.13,-2.25 l 0,0 0,0 q 3.02,-0.83 7.169999,-1.14 l 0,0 6.15,-0.5 0,-1.75 0,0 q 0,-9.43 -8.78,-9.43 l 0,0 0,0 q -2.08,0 -5.26,0.9 l 0,0 0,0 q -3.179999,0.9 -5.469999,2.13 l 0,0 -1.4400005,-3.94 0,0 q 7.4900005,-3.83 13.9200005,-3.83 l 0,0 0,0 q 12.52,0 12.52,13.25 l 0,0 0,15.749998 0,0 q 0,4.78 0.909999,8.51 m -6.4,-10.86 0,0 0,-6.649998 0,0 q -7.41,0.67 -10.17,1.25 l 0,0 0,0 q -2.76,0.58 -4.78,2.16 l 0,0 0,0 q -2.03,1.58 -2.03,4.289998 l 0,0 0,0 q 0,2.46 1.73,3.97 l 0,0 0,0 q 1.72,1.52 4.39,1.52 l 0,0 0,0 q 2.92,0 5.8,-1.74 l 0,0 0,0 q 2.89,-1.74 5.06,-4.8 z m 46.090001,-25.139998 -1.230001,4.61 0,0 q -4.599999,-1.52 -8.68,-1.52 l 0,0 0,0 q -4.46,0 -7.07,1.5 l 0,0 0,0 q -2.6,1.49 -2.6,3.99 l 0,0 0,0 q 0,1.58 1.2,2.76 l 0,0 0,0 q 1.19,1.18 4.78,2.2 l 0,0 5.24,1.51 0,0 q 3.62,1.02 5.9,2.44 l 0,0 0,0 q 2.29,1.42 3.430001,3.45 l 0,0 0,0 q 1.14,2.02 1.14,4.689998 l 0,0 0,0 q 0,5.24 -4.39,8.28 l 0,0 0,0 q -4.400001,3.04 -11.18,3.04 l 0,0 0,0 q -6.75,0 -11.14,-2.04 l 0,0 1.049999,-4.75 0,0 q 4.61,2.18 9.88,2.18 l 0,0 0,0 q 4.57,0 7.430001,-1.7 l 0,0 0,0 q 2.87,-1.71 2.87,-4.52 l 0,0 0,0 q 0,-1.899998 -1.42,-3.389998 l 0,0 0,0 q -1.43,-1.5 -6.7,-3.11 l 0,0 0,0 q -4.26,-1.3 -6.26,-1.95 l 0,0 0,0 q -2,-0.65 -3.73,-1.92 l 0,0 0,0 q -1.72,-1.27 -2.62,-3.02 l 0,0 0,0 q -0.89,-1.76 -0.89,-3.94 l 0,0 0,0 q 0,-4.75 4.15,-7.52 l 0,0 0,0 q 4.15,-2.78 11,-2.78 l 0,0 0,0 q 4.43,0 9.84,1.51 l 0,0 z m 31.539997,-14.55 0,0 0,0 q 7.87,0 12.11,6.76 l 0,0 0,0 q 4.24,6.77 4.24,19.01 l 0,0 0,0 q 0,11.84 -4.12,18.789998 l 0,0 0,0 q -4.11,6.94 -12.23,6.94 l 0,0 0,0 q -7.84,0 -12.089998,-6.75 l 0,0 0,0 q -4.26,-6.749998 -4.26,-18.979998 l 0,0 0,0 q 0,-11.89 4.13,-18.83 l 0,0 0,0 q 4.129998,-6.94 12.219998,-6.94 m 0,46.439998 0,0 0,0 q 5.2,0 7.72,-4.94 l 0,0 0,0 q 2.51,-4.939998 2.51,-15.729998 l 0,0 0,0 q 0,-10.83 -2.51,-15.74 l 0,0 0,0 q -2.52,-4.9 -7.72,-4.9 l 0,0 0,0 q -5.13,0 -7.66,5.03 l 0,0 0,0 q -2.539998,5.02 -2.539998,15.61 l 0,0 0,0 q 0,10.72 2.519998,15.689998 l 0,0 0,0 q 2.51,4.98 7.68,4.98 m -0.14,-25.949998 0,0 0,0 q 2.21,0 3.74,1.53 l 0,0 0,0 q 1.53,1.53 1.53,3.75 l 0,0 0,0 q 0,2.28 -1.54,3.92 l 0,0 0,0 q -1.55,1.63 -3.73,1.63 l 0,0 0,0 q -2.15,0 -3.67,-1.63 l 0,0 0,0 q -1.53,-1.64 -1.53,-3.92 l 0,0 0,0 q 0,-2.25 1.49,-3.77 l 0,0 0,0 q 1.49,-1.51 3.71,-1.51 z m 46.51,3.2 0,0.21 0,0 q 4.54,1.27 7.28,4.62 l 0,0 0,0 q 2.74,3.36 2.74,7.55 l 0,0 0,0 q 0,6.539998 -5.1,10.979998 l 0,0 0,0 q -5.09,4.45 -12.02,4.45 l 0,0 0,0 q -5.91,0 -10.58,-2.6 l 0,0 1.12,-4.75 0,0 q 4.89,2.29 9.67,2.29 l 0,0 0,0 q 4.5,0 7.68,-2.8 l 0,0 0,0 q 3.18,-2.79 3.18,-7.189998 l 0,0 0,0 q 0,-4.32 -3.41,-7.03 l 0,0 0,0 q -3.41,-2.71 -9.03,-2.71 l 0,0 -1.51,0 0,-4.74 0.42,0 0,0 q 5.41,0 8.93,-2.55 l 0,0 0,0 q 3.51,-2.55 3.51,-6.87 l 0,0 0,0 q 0,-3.52 -2.53,-5.51 l 0,0 0,0 q -2.53,-1.98 -6.96,-1.98 l 0,0 0,0 q -3.83,0 -8.58,2.07 l 0,0 -0.77,-4.95 0,0 q 4.78,-2.18 9.63,-2.18 l 0,0 0,0 q 6.65,0 10.95,3.49 l 0,0 0,0 q 4.31,3.5 4.31,8.99 l 0,0 0,0 q 0,3.79 -2.62,7.08 l 0,0 0,0 q -2.62,3.29 -6.31,4.13 l 0,0 z"
     id="path4"
     inkscape:connector-curvature="0"
     style="fill:#000000;stroke:#000000" />
</svg>
